<svg xmlns="http://www.w3.org/2000/svg" viewBox="0 0 249 96" width="249" height="96" role="img"><title>Booky</title><g fill="#8B3FD3" transform="translate(2.00,71.52)"><path transform="translate(0.00,0) scale(0.06720,-0.06720)" d="M33 0V40Q78 42 100.5 50.5Q123 59 131.0 83.0Q139 107 139 154V616Q139 663 133.0 686.5Q127 710 108.5 719.0Q90 728 54 730V770H375Q525 770 607.0 721.0Q689 672 689 583Q689 523 646.5 481.5Q604 440 518 415V411Q592 411 645.5 384.0Q699 357 728.5 310.0Q758 263 758 203Q758 152 733.5 114.0Q709 76 663 50Q619 25 557.0 12.5Q495 0 418 0ZM425 61Q586 61 586 206Q586 250 572.0 282.5Q558 315 528 336Q498 357 450.0 366.0Q402 375 334 375H286V175Q286 114 318.0 87.5Q350 61 425 61ZM286 435H345Q390 435 423.5 443.5Q457 452 479 468Q504 485 515.5 511.0Q527 537 527 571Q527 644 491.0 676.5Q455 709 375 709H304Q286 709 286 692Z"/><path transform="translate(52.55,0) scale(0.06720,-0.06720)" d="M328.0988023952096 540Q388 540 441.0 520.0Q494 500 535.0 463.5Q576 427 599.5 377.5Q623 328 623 269Q623 208 599.5 157.0Q576 106 535.0 68.5Q494 31 440.7547169811321 10.5Q387.50943396226415 -10 328 -10Q269.1696750902527 -10 216.64259927797835 10.5Q164.11552346570397 31 123.66967509025271 68.5Q83.22382671480145 106 60.111913357400724 157.0Q37 208 37 269Q37 348 76.93413173652695 409.0Q116.86826347305389 470 183.0748502994012 505.0Q249.2814371257485 540 328.0988023952096 540ZM328.32 482Q288 482 257.5 455.0Q227 428 210.5 379.9047619047619Q194 331.8095238095238 194 268Q194 169 230.37551867219918 110.0Q266.75103734439836 51 328.05809128630705 51Q391 51 428.5 110.25850340136054Q466 169.51700680272108 466 267.9625850340136Q466 332 449.0 380.0Q432 428 401.1428571428571 455.0Q370.2857142857143 482 328.32 482Z"/><path transform="translate(95.89,0) scale(0.06720,-0.06720)" d="M328.0988023952096 540Q388 540 441.0 520.0Q494 500 535.0 463.5Q576 427 599.5 377.5Q623 328 623 269Q623 208 599.5 157.0Q576 106 535.0 68.5Q494 31 440.7547169811321 10.5Q387.50943396226415 -10 328 -10Q269.1696750902527 -10 216.64259927797835 10.5Q164.11552346570397 31 123.66967509025271 68.5Q83.22382671480145 106 60.111913357400724 157.0Q37 208 37 269Q37 348 76.93413173652695 409.0Q116.86826347305389 470 183.0748502994012 505.0Q249.2814371257485 540 328.0988023952096 540ZM328.32 482Q288 482 257.5 455.0Q227 428 210.5 379.9047619047619Q194 331.8095238095238 194 268Q194 169 230.37551867219918 110.0Q266.75103734439836 51 328.05809128630705 51Q391 51 428.5 110.25850340136054Q466 169.51700680272108 466 267.9625850340136Q466 332 449.0 380.0Q432 428 401.1428571428571 455.0Q370.2857142857143 482 328.32 482Z"/><path transform="translate(139.24,0) scale(0.06720,-0.06720)" d="M16 0V40Q53 41 72.0 50.5Q91 60 98.0 85.0Q105 110 105 157V581Q105 647 102.5 687.0Q100 727 83 742Q73 751 57.5 753.0Q42 755 19 755V792L242 830V274L338 365Q390 414 412.0 439.0Q434 464 434 474Q434 483 415.5 486.5Q397 490 347 490V530H620V490Q595 490 574.0 484.5Q553 479 533.0 466.5Q513 454 490 432L393 341L566 96Q582 75 596.0 62.5Q610 50 627.5 45.0Q645 40 669 40V0H358V40Q390 40 403.0 42.5Q416 45 416 52Q416 59 405.0 79.0Q394 99 368 137L292 251L242 203V164Q242 112 247.5 85.5Q253 59 268.0 49.5Q283 40 311 40V0Z"/><path transform="translate(182.85,0) scale(0.06720,-0.06720)" d="M516 323 287 -157Q266 -201 223.0 -230.5Q180 -260 136 -260Q103 -260 83.0 -244.0Q63 -228 63 -201Q63 -176 80.5 -162.0Q98 -148 137 -145Q183 -141 211.0 -127.0Q239 -113 252 -89L279 -37L102 401Q87 440 75.5 458.5Q64 477 49.0 483.0Q34 489 8 490V530H311V490Q272 490 256.5 482.5Q241 475 241 455Q241 448 243.5 437.0Q246 426 250 415L352 123H356L442 318Q460 360 469.5 383.5Q479 407 482.5 421.0Q486 435 486 446Q486 472 471.5 481.0Q457 490 413 490V530H654V490Q635 490 620.5 484.5Q606 479 592.0 462.0Q578 445 560.0 412.0Q542 379 516 323Z"/></g><rect x="234.98" y="59.09" width="12.43" height="12.43" rx="1.62" fill="#231235"/></svg>